<mxfile host="app.diagrams.net" modified="2023-07-08T05:07:54.649Z" agent="Mozilla/5.0 (Windows NT 10.0; Win64; x64) AppleWebKit/537.36 (KHTML, like Gecko) Chrome/114.0.0.0 Safari/537.36" version="21.5.2" etag="4BEH6dHjDeN1NgGwhUHX" type="github">
  <diagram name="Halaman-1" id="ZF7GfEOaSyg-8AYR9_QO">
    <mxGraphModel>
      <root>
        <mxCell id="0" />
        <mxCell id="1" parent="0" />
      </root>
    </mxGraphModel>
  </diagram>
</mxfile>
